<?xml version="1.0" encoding="UTF-8"?>
<svg version="1.1" xmlns="http://www.w3.org/2000/svg" width="512" height="512">
<path d="M0 0 C0.75579363 -0.00367669 1.51158727 -0.00735338 2.29028374 -0.01114148 C4.80649038 -0.02209788 7.32265562 -0.02600829 9.83888245 -0.02983093 C11.64957305 -0.03610139 13.46026237 -0.0427487 15.27095032 -0.04974365 C21.2005678 -0.07070734 27.13018532 -0.08113497 33.05982971 -0.09111023 C35.10489986 -0.09515987 37.14996987 -0.09927686 39.19503975 -0.10346031 C48.7994701 -0.12249062 58.40389283 -0.13672934 68.00833839 -0.14507228 C79.08462747 -0.15485393 90.16071721 -0.18120673 101.23693603 -0.22157317 C109.80783362 -0.25173535 118.37867402 -0.26654103 126.94962364 -0.26985329 C132.06504149 -0.2722025 137.18024582 -0.28114722 142.29560661 -0.30631447 C147.10639554 -0.32960369 151.91683043 -0.33382498 156.72766113 -0.32355309 C158.49006898 -0.32305792 160.25249433 -0.32937268 162.01484871 -0.34310913 C180.28731864 -0.47753326 180.28731864 -0.47753326 186.6852026 5.55915356 C191.62616426 11.02693801 192.67197764 16.22115467 192.48951721 23.36592102 C191.90585598 28.76289239 190.24324101 32.42063283 186.05982971 35.93623352 C179.81115478 40.28045233 175.57404741 41.27031569 167.94824219 41.28520203 C166.85219834 41.28943395 166.85219834 41.28943395 165.73401219 41.29375136 C163.28458319 41.30208675 160.83519946 41.30343473 158.38575745 41.30488586 C156.62963738 41.30955502 154.87351852 41.31469875 153.11740112 41.32028198 C149.33385774 41.33156003 145.55032222 41.33999578 141.7667675 41.34640121 C135.77751619 41.3570904 129.78832119 41.37733917 123.79910278 41.39952087 C106.76714162 41.46140954 89.73518342 41.51540474 72.70314026 41.54853821 C63.29769242 41.56691546 53.89233864 41.59589226 44.48695999 41.63654292 C39.51287336 41.65756448 34.53890504 41.67306327 29.56477165 41.67535019 C24.88040962 41.67750635 20.19629371 41.69347404 15.51200676 41.71973991 C13.79926412 41.72689817 12.08649154 41.72905086 10.37373734 41.72563744 C-7.86469609 41.69511395 -24.10472923 45.85069236 -37.67625427 58.61054993 C-51.57406017 72.6521181 -54.97779109 91.36033919 -54.94497681 110.40048218 C-54.94837514 111.87385226 -54.94837514 111.87385226 -54.95184213 113.3769874 C-54.95813123 116.64162139 -54.95735607 119.90621332 -54.95652771 123.17085266 C-54.95952228 125.52222751 -54.96292549 127.87360187 -54.96670532 130.22497559 C-54.97551669 136.59255587 -54.97788216 142.9601227 -54.97852111 149.32770848 C-54.97935255 153.9770213 -54.9822543 158.62633115 -54.98535759 163.27564291 C-54.99365096 175.78315725 -54.99740109 188.29066449 -54.99668785 200.79818148 C-54.99662792 201.86147207 -54.99662792 201.86147207 -54.99656677 202.94624329 C-54.99650545 204.01084089 -54.99650545 204.01084089 -54.99644289 205.09694552 C-54.99603616 216.60712734 -55.0056156 228.11727649 -55.01970514 239.62744886 C-55.0340801 251.46469113 -55.04097479 263.30191747 -55.04011136 275.13916868 C-55.03977991 281.77753539 -55.04270045 288.41587194 -55.05328941 295.05423164 C-55.06297302 301.29477415 -55.06304772 307.5352442 -55.05577278 313.77578926 C-55.05472745 316.06346238 -55.05708674 318.35114002 -55.06313324 320.63880539 C-55.07086298 323.76623641 -55.06620181 326.89341777 -55.0585022 330.02084351 C-55.06364576 330.92163433 -55.06878932 331.82242515 -55.07408875 332.75051266 C-55.03702518 339.58301694 -54.8740037 346.94974521 -50.49876404 352.52217102 C-45.68076124 357.22812724 -41.95994191 358.76143195 -35.28392029 359.19404602 C-23.20066459 358.96497956 -12.3299583 344.93669871 -4.04173279 337.16670227 C14.28614902 319.99324931 14.28614902 319.99324931 26.92123413 320.00914001 C28.27621043 320.0049081 28.27621043 320.0049081 29.65855998 320.00059068 C32.69833101 319.99222972 35.73806569 319.99090511 38.77784729 319.98945618 C40.95259199 319.98478882 43.12733571 319.97964538 45.30207825 319.97406006 C49.99361899 319.96276791 54.68515334 319.95433889 59.37670326 319.94794083 C66.80330395 319.93726422 74.22985902 319.91701796 81.65643311 319.89482117 C92.07824736 319.86426467 102.50006294 319.83504486 112.92189026 319.8092804 C113.91419762 319.80682312 113.91419762 319.80682312 114.9265516 319.80431621 C124.95819472 319.77971791 134.98983914 319.76154861 145.02149963 319.74580383 C156.68076331 319.72742404 168.33995115 319.69844177 179.99915904 319.65779912 C186.16663198 319.63677745 192.33400951 319.62127878 198.50152016 319.61899185 C204.31196192 319.61683498 210.1222054 319.60085985 215.93258667 319.57460213 C218.0568857 319.5674459 220.18120886 319.56529016 222.3055172 319.56870461 C242.88748516 319.5964838 262.70595681 317.42737175 278.18873596 302.14717102 C284.63874024 294.83645777 289.00370109 287.33942355 292.18873596 278.14717102 C292.60123596 276.97154602 293.01373596 275.79592102 293.43873596 274.58467102 C295.33296349 265.90279483 295.33753509 256.97832927 295.39967346 248.12763977 C295.42770823 245.8665644 295.45637238 243.60549677 295.48561096 241.34443665 C295.52701139 237.8246607 295.56395611 234.30503488 295.59010315 230.78511047 C295.61769093 227.35732923 295.66351441 223.930178 295.71217346 220.50263977 C295.71542633 219.45255234 295.7186792 218.4024649 295.72203064 217.32055664 C295.82918838 210.94857958 296.39800109 206.24210922 300.83717346 201.31904602 C306.66863665 196.51666457 310.97525005 194.64521447 318.63014221 194.83857727 C325.49239228 195.66623797 329.79593726 199.2469895 334.05982971 204.46357727 C336.40943212 207.96765561 336.32961004 211.18622512 336.36573792 215.27656555 C336.37857315 216.54283783 336.39140839 217.80911011 336.40463257 219.11375427 C336.41281012 220.50249332 336.42025189 221.89123687 336.42701721 223.27998352 C336.43109274 223.98416286 336.43516827 224.68834221 336.43936729 225.41386032 C336.46024317 229.15520177 336.4745273 232.89650659 336.48390198 236.63789368 C336.49269225 239.70255344 336.51339543 242.76674943 336.54542542 245.83125305 C336.88050545 278.60286572 336.88050545 278.60286572 332.18873596 292.14717102 C331.91150696 292.98699524 331.63427795 293.82681946 331.34864807 294.6920929 C322.20293238 320.06087874 303.05296192 340.13858172 279.07154846 351.94795227 C260.87362137 360.43479718 242.11088191 361.44974475 222.3764801 361.24385071 C220.3101163 361.23020317 218.24374492 361.2176663 216.17736816 361.20614624 C211.75335483 361.1805147 207.32941583 361.14981493 202.90545845 361.11591339 C195.89781113 361.06501475 188.89025127 361.04261136 181.88244629 361.02711487 C180.1021477 361.02303891 180.1021477 361.02303891 178.28588349 361.01888061 C175.86043888 361.01344848 173.43499405 361.00811327 171.00954902 361.00287294 C154.71507335 360.96723084 138.42139094 360.91608976 122.12745667 360.77363586 C111.10666038 360.67749224 100.08689197 360.63125691 89.06566519 360.64223981 C83.24552109 360.646099 77.42792627 360.62506039 71.60830879 360.54288483 C66.13319876 360.46600068 60.6618266 360.45540069 55.18634987 360.4938488 C53.18811035 360.49640427 51.18966555 360.47537175 49.1919899 360.42783546 C39.46287579 360.20920068 32.17280908 360.42981771 24.61987823 367.08155465 C22.1682997 369.47845605 19.85398718 371.95919846 17.60628688 374.54755831 C15.83641579 376.5447411 13.90682681 378.29402157 11.87623596 380.02217102 C10.97324768 380.79174133 10.97324768 380.79174133 10.05201721 381.57685852 C9.4371344 382.09506165 8.82225159 382.61326477 8.18873596 383.14717102 C7.09625549 384.11010071 7.09625549 384.11010071 5.98170471 385.09248352 C-6.76311983 395.92249597 -21.91867053 401.98280078 -38.75657654 401.42451477 C-55.04835232 399.9453382 -68.40274448 393.90388596 -79.81126404 382.14717102 C-80.45708435 381.51037415 -81.10290466 380.87357727 -81.76829529 380.21748352 C-92.25600874 369.20424195 -96.28946327 354.75084609 -96.19894409 339.87834167 C-96.20432963 338.79879624 -96.20971517 337.71925081 -96.2152639 336.60699189 C-96.22947948 333.01854098 -96.22245535 329.4304623 -96.21531677 325.84199524 C-96.22102381 323.25714829 -96.22798936 320.67230386 -96.2361145 318.08746338 C-96.25325092 311.81136321 -96.25415294 305.53536339 -96.2489016 299.25924592 C-96.24484747 294.15190179 -96.24631816 289.04458715 -96.25164986 283.93724442 C-96.25239828 283.20817237 -96.2531467 282.47910032 -96.2539178 281.72793517 C-96.25544942 280.24640447 -96.25698777 278.76487378 -96.25853277 277.28334309 C-96.27224024 263.40946573 -96.26683344 249.53564486 -96.25534756 235.66176881 C-96.24542649 223.00273782 -96.25833942 210.34385324 -96.28228175 197.68484484 C-96.30673909 184.65422634 -96.3162638 171.62367583 -96.30962902 158.59303486 C-96.30615027 151.29040784 -96.30827887 143.98789319 -96.32588005 136.68528366 C-96.34224261 129.81181159 -96.3373176 122.93862165 -96.31857491 116.06515694 C-96.31490741 113.55347431 -96.31794327 111.04177079 -96.32846069 108.5301075 C-96.44945854 77.22533993 -88.5713973 51.18346248 -66.81126404 28.14717102 C-48.6382199 11.26654947 -25.04965521 -0.0066547 0 0 Z " fill="#000000" transform="translate(95.81126403808594,82.85282897949219)"/>
<path d="M0 0 C11.35685006 9.69441641 19.57162618 23.7610725 20.90893555 38.80322266 C21.39828241 50.11141296 21.35563609 60.80553539 16.6875 71.3125 C16.28660156 72.23804687 15.88570313 73.16359375 15.47265625 74.1171875 C8.80853422 87.7544923 -4.35775185 98.51419072 -14.96923828 109.14624023 C-16.41141782 110.59470175 -17.85341383 112.04334602 -19.29524231 113.49215698 C-23.98757735 118.20531877 -28.68504988 122.91334285 -33.3828125 127.62109375 C-35.01167727 129.2540133 -36.64051083 130.88696397 -38.26931381 132.51994514 C-45.92285364 140.19248517 -53.5787688 147.86264519 -61.23763001 155.52987331 C-70.03104179 164.33305521 -78.81610775 173.14445706 -87.59418499 181.96292919 C-94.41384645 188.81287807 -101.24128758 195.65501144 -108.07445896 202.49148327 C-112.14028219 206.5596413 -116.20282758 210.63094193 -120.25711441 214.7105999 C-124.07492074 218.55191628 -127.90241456 222.38332297 -131.73708153 226.20780563 C-133.12993284 227.60016711 -134.51946831 228.99585627 -135.90511131 230.39539146 C-149.82995869 244.45182267 -164.64887737 256.30090626 -182.3125 265.3125 C-182.91739258 265.62912598 -183.52228516 265.94575195 -184.14550781 266.27197266 C-202.88131345 276.00584889 -224.25107681 281.27514632 -245.3125 282.3125 C-246.32054687 282.36535156 -247.32859375 282.41820312 -248.3671875 282.47265625 C-256.12246045 282.69506433 -261.80424639 282.10315628 -268.0625 277.125 C-272.86260639 271.12486701 -274.98901077 265.73595819 -274.75 258.0625 C-274.73678711 257.29381592 -274.72357422 256.52513184 -274.70996094 255.7331543 C-273.61586088 219.51479549 -259.4648542 183.29515151 -234.63510513 156.80628872 C-232.51774707 154.53287445 -230.45652684 152.22135114 -228.40081787 149.89234924 C-222.3189169 143.1274454 -215.88600996 136.72196308 -209.46191406 130.28491211 C-208.08250251 128.89922171 -206.70327595 127.51334713 -205.32421875 126.12730408 C-200.8290598 121.61128411 -196.32873014 117.10043502 -191.828125 112.58984375 C-190.27037179 111.02803727 -188.71265053 109.46619893 -187.15496063 107.9043293 C-179.83780503 100.56816728 -172.51827094 93.23438865 -165.19578767 85.90354437 C-156.77530159 77.4732808 -148.36316852 69.03479538 -139.95800233 60.58925813 C-133.43650447 54.03752469 -126.90727714 47.49355821 -120.37229705 40.95527273 C-116.47983638 37.06047169 -112.59069089 33.16249633 -108.70972443 29.25623894 C-105.0577066 25.58080237 -101.39611554 21.9151714 -97.7272644 18.2565403 C-96.39078545 16.92055333 -95.05765628 15.58120457 -93.72835541 14.23807526 C-67.18743919 -12.56319016 -33.02980748 -24.46652406 0 0 Z M-57.12960815 36.50141907 C-57.76642206 37.13113859 -58.40323597 37.76085811 -59.05934727 38.40966004 C-61.17902414 40.51180931 -63.28045952 42.63127306 -65.38232422 44.7512207 C-66.9031642 46.2669196 -68.42507349 47.7815462 -69.94796753 49.29518127 C-74.07539495 53.40410093 -78.18693984 57.52857915 -82.29527426 61.6565783 C-86.60695638 65.98467237 -90.93125582 70.300129 -95.25369263 74.61747742 C-102.51699375 81.87625732 -109.77003766 89.14516566 -117.01708984 96.42016602 C-125.37189599 104.80694546 -133.74252557 113.17766824 -142.1219672 121.5398286 C-150.20222603 129.60416189 -158.27106082 137.67983448 -166.33484268 145.7606411 C-169.75594989 149.18858537 -173.18092373 152.61259442 -176.60915756 156.03341103 C-180.65837383 160.07490473 -184.69740824 164.1263187 -188.72914505 168.18524742 C-190.20182635 169.66475436 -191.67782299 171.14097066 -193.157547 172.61343384 C-211.53665647 190.91280429 -226.81767701 212.17019617 -231.3125 238.3125 C-208.15713331 236.89482449 -187.6220366 222.1537503 -171.30827332 206.86560059 C-170.65689367 206.2560394 -170.00551401 205.64647822 -169.33439559 205.01844549 C-162.42800556 198.5253907 -155.70597079 191.85426899 -149.00512695 185.15039062 C-147.65001046 183.79827704 -146.29469311 182.44636475 -144.93919373 181.09463501 C-141.30943954 177.4735979 -137.68282211 173.84943588 -134.05710244 170.22435951 C-131.78661865 167.95459187 -129.51542209 165.6855399 -127.2439785 163.41673279 C-119.30703211 155.48899029 -111.37262375 147.5587181 -103.44067383 139.62597656 C-96.06224529 132.24694457 -88.67822481 124.87354074 -81.2916339 117.5026803 C-74.92596853 111.15008615 -68.56416002 104.79364702 -62.20534676 98.43419409 C-58.41720782 94.64580057 -54.62754257 90.85896583 -50.83397865 87.07600403 C-47.27619402 83.52789635 -43.72323671 79.975025 -40.17392921 76.41843796 C-38.8727868 75.11625009 -37.56993958 73.81576305 -36.26525497 72.51712418 C-34.48269586 70.74229142 -32.70643737 68.96137769 -30.93159485 67.17883301 C-30.41652715 66.66890887 -29.90145944 66.15898473 -29.37078363 65.63360834 C-23.82083002 60.03041753 -20.21195694 55.04993001 -20 47.0625 C-20.07350534 40.87171677 -21.36735216 37.41483269 -25.703125 32.84765625 C-29.80499739 29.12358789 -33.75173648 27.59084386 -39.1875 27 C-47.03861659 27.78511166 -51.79265393 31.05496461 -57.12960815 36.50141907 Z " fill="#000000" transform="translate(491.3125,41.6875)"/>
<path d="M0 0 C1.03717667 -0.0098568 1.03717667 -0.0098568 2.0953064 -0.01991272 C4.3828747 -0.03961702 6.67037738 -0.05130273 8.95800781 -0.0612793 C10.13229214 -0.06739259 10.13229214 -0.06739259 11.33029938 -0.07362938 C15.4750797 -0.09447932 19.61982704 -0.10878487 23.76464844 -0.11816406 C28.03625018 -0.12921778 32.30732947 -0.1636083 36.5787468 -0.20333576 C39.87140847 -0.22953832 43.16394643 -0.23785916 46.45670319 -0.24144554 C48.03070854 -0.24630324 49.60470868 -0.25789396 51.17861176 -0.27648354 C53.38771912 -0.30095083 55.59548485 -0.2998969 57.8046875 -0.29296875 C59.05916687 -0.29883499 60.31364624 -0.30470123 61.60614014 -0.31074524 C67.34297086 0.47635148 71.85807779 3.19781523 75.53613281 7.73950195 C76.01824219 8.31829102 76.50035156 8.89708008 76.99707031 9.4934082 C80.47929383 14.52977847 79.77317586 21.35915457 79.16113281 27.17700195 C77.21647403 32.3251028 73.84083701 36.28004221 69.16113281 39.17700195 C64.46829642 40.74587254 60.37256183 41.43157722 55.43481445 41.45166016 C54.13979507 41.46119217 52.8447757 41.47072418 51.51051331 41.48054504 C50.11410495 41.48028358 48.71769657 41.47934637 47.32128906 41.4777832 C45.87072122 41.48167649 44.4201545 41.48601246 42.96958923 41.49076843 C39.93777766 41.4982048 36.90608259 41.49795807 33.87426758 41.49267578 C30.00648998 41.4868822 26.13919142 41.50382163 22.27149296 41.52702045 C19.27816523 41.54181591 16.28495137 41.54262168 13.29159355 41.53951073 C11.86636849 41.54002095 10.44113656 41.54520194 9.01594734 41.55532265 C-0.08761999 41.61204838 -7.64569769 41.53096319 -15.15136719 35.86450195 C-19.98215828 31.03371086 -21.02991609 27.42187547 -21.21386719 20.67700195 C-21.03294753 14.5396505 -20.42501588 10.75776284 -15.96386719 6.3059082 C-10.58487292 1.39164322 -7.37705784 0.05803681 0 0 Z " fill="#000000" transform="translate(100.8388671875,282.822998046875)"/>
<path d="M0 0 C1.03717667 -0.0098568 1.03717667 -0.0098568 2.0953064 -0.01991272 C4.3828747 -0.03961702 6.67037738 -0.05130273 8.95800781 -0.0612793 C10.13229214 -0.06739259 10.13229214 -0.06739259 11.33029938 -0.07362938 C15.4750797 -0.09447932 19.61982704 -0.10878487 23.76464844 -0.11816406 C28.03625018 -0.12921778 32.30732947 -0.1636083 36.5787468 -0.20333576 C39.87140847 -0.22953832 43.16394643 -0.23785916 46.45670319 -0.24144554 C48.03070854 -0.24630324 49.60470868 -0.25789396 51.17861176 -0.27648354 C53.38771912 -0.30095083 55.59548485 -0.2998969 57.8046875 -0.29296875 C59.05916687 -0.29883499 60.31364624 -0.30470123 61.60614014 -0.31074524 C67.34297086 0.47635148 71.85807779 3.19781523 75.53613281 7.73950195 C76.01824219 8.31829102 76.50035156 8.89708008 76.99707031 9.4934082 C80.47929383 14.52977847 79.77317586 21.35915457 79.16113281 27.17700195 C77.21647403 32.3251028 73.84083701 36.28004221 69.16113281 39.17700195 C64.46829642 40.74587254 60.37256183 41.43157722 55.43481445 41.45166016 C54.13979507 41.46119217 52.8447757 41.47072418 51.51051331 41.48054504 C50.11410495 41.48028358 48.71769657 41.47934637 47.32128906 41.4777832 C45.87072122 41.48167649 44.4201545 41.48601246 42.96958923 41.49076843 C39.93777766 41.4982048 36.90608259 41.49795807 33.87426758 41.49267578 C30.00648998 41.4868822 26.13919142 41.50382163 22.27149296 41.52702045 C19.27816523 41.54181591 16.28495137 41.54262168 13.29159355 41.53951073 C11.86636849 41.54002095 10.44113656 41.54520194 9.01594734 41.55532265 C-0.08761999 41.61204838 -7.64569769 41.53096319 -15.15136719 35.86450195 C-19.98215828 31.03371086 -21.02991609 27.42187547 -21.21386719 20.67700195 C-21.03294753 14.5396505 -20.42501588 10.75776284 -15.96386719 6.3059082 C-10.58487292 1.39164322 -7.37705784 0.05803681 0 0 Z " fill="#000000" transform="translate(100.8388671875,202.822998046875)"/>
</svg>
